<?xml version="1.0" encoding="utf-8"?>
<!-- Generator: Adobe Illustrator 16.0.0, SVG Export Plug-In . SVG Version: 6.00 Build 0)  -->
<!DOCTYPE svg PUBLIC "-//W3C//DTD SVG 1.1//EN" "http://www.w3.org/Graphics/SVG/1.1/DTD/svg11.dtd">
<svg version="1.1" id="Layer_1" xmlns="http://www.w3.org/2000/svg" xmlns:xlink="http://www.w3.org/1999/xlink" x="0px" y="0px"
	 width="121px" height="19px" viewBox="0 0 121 19" enable-background="new 0 0 121 19" xml:space="preserve">
<path fill-rule="evenodd" clip-rule="evenodd" fill="#C2C2C1" d="M80.714,18.081h-4.781l-8.446-9.636v9.636h-5.578V0h5.684
	l7.54,8.599V0h5.582V18.081L80.714,18.081z M100.201,0H87.622h-5.4c0,5.5,0,11.008,0,16.51v1.571h17.885h0.095h6.823l3.538-4.802
	l3.388,4.802H121l-6.82-9.167L120.87,0h-6.92l-3.306,4.596L107.285,0h-7.053l6.659,8.935l-6.69,9.016v-4.855H87.622v-1.612h12.579
	V6.498H87.622V4.983h12.579V0L100.201,0z M16.335,0H6.764H4.299H0l3.78,5.265h6.093l0,0h6.564c0.826,0,1.237,0.392,1.237,0.936
	c0,0.594-0.411,0.93-1.237,0.93h-4.081H9.873H4.299v10.951h5.574v-5.685h6.462c4.546,0,6.92-2.144,6.92-6.196
	C23.255,2.146,20.881,0,16.335,0L16.335,0z M54.519,0h-6.924l-7.311,18.081h5.861l1.167-2.999l2.015-5.266l1.701-4.421l1.706,4.421
	h-2.054l-1.964,5.266h6.033l1.164,2.999h5.918L54.519,0L54.519,0z M40.968,12.814H29.924V0h-5.581v18.081h14.429L40.968,12.814
	L40.968,12.814z"/>
</svg>
