<?xml version="1.0" encoding="utf-8"?>
<!-- Generator: Adobe Illustrator 16.0.0, SVG Export Plug-In . SVG Version: 6.00 Build 0)  -->
<!DOCTYPE svg PUBLIC "-//W3C//DTD SVG 1.1//EN" "http://www.w3.org/Graphics/SVG/1.1/DTD/svg11.dtd">
<svg version="1.1" id="Layer_1" xmlns="http://www.w3.org/2000/svg" xmlns:xlink="http://www.w3.org/1999/xlink" x="0px" y="0px"
	 width="130px" height="30px" viewBox="-199.5 443.5 130 30" enable-background="new -199.5 443.5 130 30" xml:space="preserve">
<path fill="#2B9E1B" d="M-161.349,443.5h8.56v21.783h18.083v8.056h-26.642V443.5z"/>
<path fill="#2B9E1B" d="M-174.07,443.565h-14.897h-3.844h-6.688l5.883,8.704h9.496v-0.004h10.214c1.288,0,1.931,0.641,1.931,1.539
	c0,0.98-0.644,1.538-1.931,1.538h-6.355h-3.86h-8.689v18.079h8.69v-9.383h10.051c7.082,0,10.779-3.537,10.779-10.233
	C-163.291,447.105-166.989,443.565-174.07,443.565L-174.07,443.565z"/>
<g>
	<path fill="#FFFFFF" d="M-125.554,443.645h1.358v5.67c0.306-0.523,0.706-0.971,1.2-1.338c0.494-0.369,1.135-0.553,1.924-0.553
		c0.552,0,1.043,0.096,1.474,0.281c0.429,0.188,0.794,0.453,1.094,0.795c0.299,0.344,0.529,0.754,0.689,1.227
		c0.158,0.475,0.237,0.999,0.237,1.572v6.009h-1.358v-5.642c0-0.896-0.219-1.605-0.653-2.129c-0.436-0.522-1.059-0.783-1.871-0.783
		c-0.389,0-0.75,0.07-1.085,0.215c-0.335,0.143-0.627,0.347-0.875,0.616c-0.247,0.268-0.438,0.589-0.573,0.962
		c-0.135,0.375-0.204,0.783-0.204,1.231v5.529h-1.358v-13.663H-125.554L-125.554,443.645z"/>
	<path fill="#FFFFFF" d="M-111.065,457.531c-0.682,0-1.313-0.135-1.888-0.402c-0.577-0.269-1.077-0.631-1.5-1.084
		c-0.422-0.455-0.753-0.986-0.988-1.593c-0.235-0.604-0.353-1.249-0.353-1.938v-0.038c0-0.686,0.118-1.332,0.353-1.943
		c0.235-0.612,0.566-1.148,0.988-1.612c0.424-0.461,0.926-0.825,1.509-1.093c0.583-0.27,1.221-0.403,1.915-0.403
		c0.684,0,1.315,0.134,1.897,0.403c0.583,0.268,1.086,0.629,1.509,1.085c0.424,0.454,0.753,0.985,0.989,1.591
		c0.235,0.605,0.354,1.25,0.354,1.936v0.037c0,0.688-0.121,1.337-0.36,1.947c-0.243,0.613-0.576,1.148-0.998,1.61
		c-0.423,0.462-0.93,0.825-1.518,1.095C-109.749,457.396-110.384,457.531-111.065,457.531z M-111.029,456.238
		c0.494,0,0.947-0.099,1.358-0.297c0.412-0.201,0.765-0.471,1.059-0.806c0.294-0.337,0.523-0.729,0.689-1.179
		c0.163-0.449,0.246-0.93,0.246-1.442v-0.038c0-0.523-0.085-1.013-0.254-1.469c-0.171-0.455-0.408-0.854-0.715-1.197
		c-0.307-0.343-0.665-0.614-1.077-0.813c-0.412-0.2-0.859-0.301-1.34-0.301c-0.494,0-0.948,0.103-1.359,0.301
		c-0.413,0.199-0.763,0.468-1.051,0.807c-0.289,0.336-0.515,0.733-0.68,1.187c-0.164,0.456-0.247,0.939-0.247,1.451v0.037
		c0,0.523,0.085,1.015,0.255,1.469c0.17,0.457,0.406,0.852,0.706,1.189s0.656,0.605,1.068,0.806
		C-111.959,456.14-111.513,456.238-111.029,456.238z"/>
	<path fill="#FFFFFF" d="M-104.376,447.631h1.359v1.629c0.153-0.237,0.321-0.468,0.502-0.693c0.183-0.224,0.392-0.42,0.627-0.59
		c0.235-0.168,0.501-0.302,0.796-0.4c0.292-0.102,0.634-0.152,1.022-0.152c0.741,0,1.354,0.184,1.836,0.553
		c0.483,0.367,0.848,0.826,1.096,1.375c0.163-0.262,0.348-0.511,0.556-0.748c0.205-0.237,0.438-0.442,0.698-0.619
		c0.258-0.174,0.55-0.31,0.873-0.412c0.323-0.1,0.684-0.15,1.086-0.15c1.057,0,1.887,0.346,2.487,1.041
		c0.6,0.691,0.9,1.643,0.9,2.854v5.988h-1.359v-5.64c0-0.933-0.209-1.651-0.627-2.156s-0.997-0.755-1.738-0.755
		c-0.343,0-0.664,0.064-0.972,0.195c-0.306,0.129-0.572,0.324-0.803,0.579c-0.229,0.253-0.411,0.569-0.546,0.942
		c-0.136,0.375-0.205,0.798-0.205,1.271v5.565h-1.34v-5.679c0-0.908-0.21-1.614-0.627-2.119c-0.418-0.504-0.991-0.756-1.721-0.756
		c-0.363,0-0.699,0.072-1.006,0.225c-0.306,0.148-0.573,0.361-0.803,0.634c-0.229,0.276-0.409,0.596-0.538,0.962
		c-0.128,0.367-0.194,0.777-0.194,1.224v5.51h-1.359L-104.376,447.631L-104.376,447.631z"/>
	<path fill="#FFFFFF" d="M-87.328,453.06c0.05,0.511,0.165,0.966,0.355,1.365c0.188,0.399,0.428,0.735,0.723,1.009
		c0.294,0.275,0.624,0.484,0.988,0.629c0.364,0.143,0.747,0.214,1.146,0.214c0.637,0,1.181-0.124,1.634-0.375
		c0.453-0.249,0.868-0.579,1.244-0.991l0.85,0.805c-0.46,0.55-0.984,0.988-1.572,1.319c-0.59,0.331-1.317,0.497-2.188,0.497
		c-0.624,0-1.213-0.121-1.766-0.365c-0.553-0.242-1.036-0.588-1.447-1.03c-0.412-0.442-0.739-0.976-0.979-1.601
		c-0.241-0.622-0.361-1.309-0.361-2.059c0-0.699,0.108-1.357,0.327-1.974c0.218-0.62,0.519-1.155,0.908-1.61
		s0.851-0.814,1.386-1.076c0.536-0.262,1.12-0.395,1.756-0.395c0.671,0,1.271,0.135,1.801,0.403
		c0.529,0.268,0.976,0.632,1.342,1.095c0.363,0.462,0.642,1.004,0.828,1.627c0.188,0.627,0.283,1.292,0.283,2.004
		c0,0.063,0,0.134,0,0.215s-0.007,0.179-0.019,0.291L-87.328,453.06L-87.328,453.06z M-81.45,451.879
		c-0.035-0.433-0.124-0.848-0.265-1.236c-0.142-0.393-0.332-0.736-0.573-1.033c-0.24-0.297-0.535-0.534-0.882-0.708
		c-0.348-0.174-0.744-0.261-1.191-0.261c-0.389,0-0.754,0.082-1.094,0.241c-0.341,0.163-0.643,0.39-0.9,0.68
		c-0.261,0.292-0.474,0.636-0.644,1.032c-0.171,0.396-0.279,0.826-0.327,1.283h5.876V451.879z"/>
</g>
<g>
	<path fill="#FFFFFF" d="M-111.125,473.5c-0.682,0-1.313-0.137-1.888-0.404c-0.577-0.267-1.077-0.63-1.5-1.085
		c-0.422-0.454-0.753-0.985-0.988-1.59c-0.236-0.605-0.353-1.252-0.353-1.938v-0.037c0-0.687,0.116-1.336,0.353-1.946
		c0.235-0.611,0.566-1.148,0.988-1.611c0.424-0.459,0.926-0.826,1.508-1.094c0.584-0.268,1.222-0.402,1.916-0.402
		c0.684,0,1.315,0.135,1.897,0.402c0.583,0.268,1.086,0.629,1.508,1.085c0.424,0.456,0.755,0.986,0.989,1.59
		c0.234,0.606,0.354,1.253,0.354,1.938v0.039c0,0.687-0.12,1.334-0.362,1.945c-0.241,0.61-0.574,1.146-0.997,1.608
		c-0.425,0.462-0.93,0.827-1.519,1.096C-109.808,473.363-110.442,473.5-111.125,473.5z M-111.089,472.207
		c0.494,0,0.947-0.099,1.358-0.3c0.412-0.199,0.766-0.466,1.059-0.804c0.293-0.338,0.523-0.732,0.689-1.18
		c0.164-0.449,0.247-0.929,0.247-1.44v-0.037c0-0.526-0.086-1.017-0.257-1.472c-0.17-0.453-0.408-0.854-0.714-1.196
		c-0.306-0.343-0.665-0.614-1.076-0.814c-0.412-0.199-0.86-0.299-1.341-0.299c-0.494,0-0.948,0.1-1.359,0.299
		c-0.412,0.2-0.762,0.469-1.051,0.805c-0.288,0.339-0.513,0.735-0.678,1.188c-0.166,0.456-0.247,0.94-0.247,1.451v0.039
		c0,0.522,0.085,1.013,0.255,1.469c0.171,0.455,0.406,0.851,0.706,1.188c0.3,0.335,0.655,0.604,1.07,0.804
		C-112.019,472.106-111.573,472.207-111.089,472.207z"/>
	<path fill="#FFFFFF" d="M-103.923,464.869h-1.254v-1.254h1.254v-0.842c0-1.099,0.263-1.929,0.793-2.49
		c0.47-0.498,1.124-0.748,1.959-0.748c0.318,0,0.591,0.018,0.82,0.056s0.456,0.101,0.681,0.188v1.255
		c-0.248-0.075-0.471-0.135-0.673-0.179c-0.198-0.042-0.416-0.065-0.651-0.065c-1.059,0-1.589,0.686-1.589,2.06v0.784h2.894v1.236
		h-2.876v8.403h-1.358V464.869L-103.923,464.869z"/>
	<path fill="#FFFFFF" d="M-97.994,464.869h-1.253v-1.254h1.253v-0.842c0-1.099,0.264-1.929,0.795-2.49
		c0.472-0.498,1.124-0.748,1.959-0.748c0.317,0,0.591,0.018,0.822,0.056c0.229,0.04,0.455,0.101,0.679,0.188v1.255
		c-0.247-0.075-0.47-0.135-0.671-0.179c-0.2-0.042-0.417-0.065-0.653-0.065c-1.058,0-1.588,0.686-1.588,2.06v0.784h2.896v1.236
		h-2.879v8.403h-1.358L-97.994,464.869L-97.994,464.869L-97.994,464.869z M-91.994,459.89h1.554v1.592h-1.554V459.89z
		 M-91.887,463.597h1.341v9.676h-1.341V463.597z"/>
	<path fill="#FFFFFF" d="M-83.804,473.5c-0.672,0-1.291-0.137-1.863-0.404c-0.569-0.267-1.063-0.63-1.481-1.085
		c-0.419-0.454-0.743-0.988-0.979-1.601c-0.235-0.61-0.354-1.254-0.354-1.927v-0.037c0-0.687,0.118-1.336,0.354-1.946
		c0.235-0.611,0.561-1.148,0.979-1.611c0.418-0.459,0.912-0.826,1.481-1.096c0.571-0.266,1.191-0.4,1.863-0.4
		c0.436,0,0.829,0.042,1.183,0.131c0.354,0.088,0.677,0.209,0.97,0.365c0.295,0.156,0.565,0.34,0.813,0.551
		c0.246,0.213,0.477,0.438,0.688,0.674l-0.899,1.012c-0.366-0.398-0.763-0.742-1.192-1.029s-0.956-0.431-1.579-0.431
		c-0.46,0-0.89,0.097-1.289,0.29s-0.748,0.459-1.041,0.795c-0.295,0.336-0.522,0.732-0.688,1.188
		c-0.163,0.457-0.246,0.946-0.246,1.47v0.04c0,0.522,0.085,1.013,0.257,1.469c0.17,0.455,0.406,0.854,0.705,1.197
		c0.301,0.342,0.652,0.611,1.059,0.804c0.406,0.195,0.851,0.291,1.332,0.291c0.589,0,1.108-0.136,1.562-0.411
		c0.453-0.274,0.862-0.619,1.227-1.03l0.865,0.861c-0.459,0.552-0.98,0.999-1.562,1.348C-82.224,473.322-82.946,473.5-83.804,473.5z
		"/>
	<path fill="#FFFFFF" d="M-77.573,469.025c0.046,0.511,0.165,0.967,0.353,1.366c0.189,0.398,0.429,0.736,0.724,1.01
		c0.295,0.277,0.623,0.483,0.988,0.627c0.366,0.145,0.748,0.216,1.148,0.216c0.635,0,1.18-0.124,1.633-0.374
		c0.452-0.25,0.866-0.581,1.243-0.992l0.847,0.805c-0.458,0.55-0.981,0.989-1.569,1.32c-0.59,0.329-1.319,0.497-2.188,0.497
		c-0.625,0-1.213-0.124-1.767-0.366c-0.554-0.244-1.036-0.588-1.447-1.029c-0.413-0.443-0.739-0.977-0.979-1.603
		c-0.241-0.622-0.362-1.309-0.362-2.058c0-0.7,0.109-1.357,0.326-1.975c0.22-0.616,0.521-1.153,0.909-1.608
		c0.389-0.455,0.85-0.815,1.386-1.076c0.535-0.263,1.121-0.393,1.757-0.393c0.671,0,1.271,0.133,1.799,0.4
		c0.53,0.269,0.977,0.633,1.343,1.095c0.364,0.461,0.64,1.005,0.828,1.63c0.189,0.621,0.282,1.29,0.282,2.001
		c0,0.063,0,0.136,0,0.216c0,0.082-0.006,0.179-0.018,0.289h-7.235V469.025z M-71.697,467.845c-0.034-0.432-0.122-0.845-0.264-1.235
		s-0.333-0.735-0.573-1.034c-0.241-0.296-0.536-0.532-0.884-0.704c-0.346-0.176-0.743-0.262-1.191-0.262
		c-0.388,0-0.752,0.08-1.095,0.24c-0.341,0.162-0.642,0.389-0.899,0.68c-0.26,0.292-0.475,0.637-0.644,1.033
		c-0.172,0.398-0.281,0.825-0.327,1.282H-71.697z"/>
</g>
<g>
	<path fill="#FFFFFF" d="M-120.421,470.811c-0.535,0.613-1.114,1.089-1.736,1.426c-0.625,0.337-1.319,0.505-2.087,0.505
		c-0.524,0-1.012-0.083-1.461-0.248c-0.451-0.164-0.84-0.398-1.169-0.707c-0.328-0.309-0.583-0.673-0.769-1.1
		c-0.183-0.425-0.275-0.896-0.275-1.417v-0.033c0-0.826,0.245-1.534,0.736-2.126c0.489-0.591,1.184-1.074,2.087-1.452
		c-0.401-0.496-0.696-0.949-0.886-1.363c-0.188-0.414-0.283-0.865-0.283-1.363v-0.033c0-0.4,0.075-0.783,0.225-1.143
		c0.149-0.36,0.358-0.674,0.626-0.938c0.266-0.267,0.59-0.478,0.968-0.63c0.378-0.152,0.801-0.23,1.27-0.23
		c0.412,0,0.79,0.074,1.134,0.223c0.344,0.147,0.644,0.349,0.892,0.602c0.25,0.255,0.451,0.55,0.593,0.886
		c0.145,0.337,0.217,0.699,0.217,1.089v0.035c0,0.791-0.244,1.445-0.734,1.966s-1.164,0.938-2.02,1.256l2.672,2.887
		c0.255-0.4,0.499-0.832,0.733-1.293c0.233-0.46,0.456-0.948,0.667-1.468l1.085,0.531c-0.255,0.59-0.521,1.143-0.793,1.663
		c-0.274,0.521-0.57,1.004-0.892,1.453l2.036,2.213l-1.001,0.814L-120.421,470.811z M-124.16,471.555
		c0.556,0,1.076-0.146,1.56-0.435c0.486-0.288,0.939-0.681,1.361-1.178l-3.123-3.417c-0.778,0.309-1.346,0.694-1.703,1.161
		c-0.356,0.465-0.536,0.966-0.536,1.497v0.035c0,0.331,0.061,0.636,0.177,0.92c0.118,0.283,0.284,0.531,0.501,0.742
		c0.217,0.213,0.475,0.379,0.776,0.498C-124.847,471.495-124.519,471.555-124.16,471.555z M-123.829,465.215
		c0.746-0.271,1.309-0.6,1.687-0.984c0.378-0.383,0.569-0.838,0.569-1.37v-0.036c0-0.496-0.157-0.906-0.469-1.23
		c-0.312-0.324-0.707-0.486-1.185-0.486c-0.535,0-0.962,0.171-1.286,0.514c-0.323,0.342-0.485,0.766-0.485,1.273v0.035
		c0,0.178,0.021,0.352,0.06,0.523c0.039,0.17,0.103,0.344,0.192,0.521c0.089,0.179,0.208,0.366,0.359,0.568
		C-124.237,464.744-124.05,464.968-123.829,465.215z"/>
</g>
</svg>
