<?xml version="1.0" encoding="utf-8"?>
<!-- Generator: Adobe Illustrator 16.0.0, SVG Export Plug-In . SVG Version: 6.00 Build 0)  -->
<!DOCTYPE svg PUBLIC "-//W3C//DTD SVG 1.1//EN" "http://www.w3.org/Graphics/SVG/1.1/DTD/svg11.dtd">
<svg version="1.1" id="Layer_1" xmlns="http://www.w3.org/2000/svg" xmlns:xlink="http://www.w3.org/1999/xlink" x="0px" y="0px"
	 width="61px" height="78px" viewBox="0.365 124.365 61 78" enable-background="new 0.365 124.365 61 78" xml:space="preserve">
<g>
	<path fill="#06A30E" d="M39.019,168.923l2.077-2.077l-4.155-4.167l-5.547,5.548L11.46,148.305l0.756-2.257l-8.009-4.684
		l-3.842,3.843l4.683,8.009l2.257-0.756l19.921,19.92l-5.536,5.548l4.155,4.155l2.077-2.078l19.945,19.945
		c3.603,3.602,8.646,2.449,11.095,0c3.062-3.063,3.062-8.033,0-11.096L39.019,168.923z M7.834,150.215l-1.897,0.637l-3.11-5.332
		l1.706-1.705l5.319,3.123l-0.636,1.896L30,169.619L28.62,171L7.834,150.215z M25.846,179.322l-1.381-1.394l12.476-12.476
		l1.393,1.381L25.846,179.322z M57.582,198.57c-2.294,2.293-6.028,2.293-8.321,0l-19.945-19.945l3.47-3.47l19.933,19.944
		l1.381-1.381l-19.933-19.944l3.47-3.471l19.945,19.944C59.863,192.543,59.863,196.277,57.582,198.57z"/>
	<path fill="#06A30E" d="M12.625,198.51c-2.293,2.294-6.028,2.294-8.321,0c-2.293-2.293-2.293-6.027,0-8.32l19.032-19.033
		l-1.381-1.393L2.923,188.797c-3.062,3.061-3.062,8.032,0,11.094c3.662,3.662,8.982,2.354,11.095,0l15.61-15.609l-1.381-1.381
		L12.625,198.51z"/>
	<path fill="#06A30E" d="M30.205,164.288l2.57-2.569c-1.97-4.684-0.373-10.723,3.23-14.326c2.894-2.893,6.856-4.322,10.891-3.962
		l-6.581,6.58l4.683,7.806l7.805,4.682l6.581-6.58c0.359,4.023-1.057,7.998-3.963,10.892c-2.798,2.798-6.665,4.251-10.627,3.987
		l-0.132,1.957c4.959,0.336,9.186-1.609,12.14-4.551c7.084-7.086,3.806-16.295,3.806-16.295l-8.117,8.117l-6.064-3.639l-3.638-6.063
		l8.118-8.117c0,0-9.234-3.242-16.283,3.806c-3.975,3.975-5.5,9.738-4.059,15.154l-1.753,1.754L30.205,164.288z"/>
	<path fill="#06A30E" d="M5.433,194.416c0,1.645,1.333,2.978,2.978,2.978c1.645,0,2.978-1.333,2.978-2.978
		c0-1.646-1.333-2.979-2.978-2.979C6.765,191.426,5.433,192.77,5.433,194.416z M9.431,194.416c0,0.564-0.457,1.021-1.021,1.021
		c-0.564,0-1.021-0.456-1.021-1.021s0.457-1.021,1.021-1.021C8.975,193.394,9.431,193.851,9.431,194.416z"/>
</g>
</svg>
