<?xml version="1.0" encoding="utf-8"?>
<!-- Generator: Adobe Illustrator 16.0.0, SVG Export Plug-In . SVG Version: 6.00 Build 0)  -->
<!DOCTYPE svg PUBLIC "-//W3C//DTD SVG 1.1//EN" "http://www.w3.org/Graphics/SVG/1.1/DTD/svg11.dtd">
<svg version="1.1" id="Layer_1" xmlns="http://www.w3.org/2000/svg" xmlns:xlink="http://www.w3.org/1999/xlink" x="0px" y="0px"
	 width="50px" height="78px" viewBox="0.365 139.365 50 78" enable-background="new 0.365 139.365 50 78" xml:space="preserve">
<g>
	<path fill="#06A30E" d="M6.819,169.436c0.544-0.077,1.011-0.155,1.478-0.155h6.532c0.544,0,1.01-0.467,1.01-1.012v-7.075
		c0-5.288,4.277-9.564,9.565-9.564c2.565,0,4.977,1.011,6.765,2.8c1.789,1.787,2.8,4.198,2.8,6.765v7.075
		c0,0.545,0.466,1.012,1.011,1.012h6.531c0.467,0,0.934,0.078,1.478,0.155c0.078,0,0.155,0,0.155,0c0.233,0,0.467-0.077,0.701-0.233
		c0.233-0.233,0.389-0.467,0.389-0.777v-7.231c0-5.288-2.1-10.265-5.832-13.997s-8.709-5.832-13.997-5.832
		c-10.964,0-19.829,8.865-19.829,19.829v7.231c0,0.311,0.156,0.621,0.389,0.777C6.197,169.436,6.508,169.513,6.819,169.436z
		 M7.675,161.194c0-9.798,7.932-17.729,17.729-17.729c4.744,0,9.176,1.865,12.52,5.21c3.343,3.343,5.21,7.775,5.21,12.52v6.065
		c-0.234,0-0.39,0-0.623,0H36.99v-6.065c0-3.11-1.244-5.987-3.421-8.243c-2.177-2.177-5.132-3.422-8.243-3.422
		c-6.376,0-11.664,5.211-11.664,11.665v6.065H8.141c-0.233,0-0.389,0-0.622,0v-6.065H7.675z M25.404,185.765
		c-3.266,0-5.91,2.645-5.91,5.91c0,1.867,0.855,3.577,2.333,4.666v4.666c0,1.943,1.633,3.576,3.577,3.576
		c1.944,0,3.577-1.633,3.577-3.576v-4.666c1.478-1.089,2.333-2.799,2.333-4.666C31.314,188.41,28.67,185.765,25.404,185.765z
		 M27.348,194.942c-0.389,0.233-0.544,0.622-0.467,1.011v0.232v4.822c0,0.855-0.7,1.477-1.477,1.477
		c-0.855,0-1.478-0.699-1.478-1.477v-4.822v-0.232c0.078-0.389-0.155-0.855-0.467-1.011c-1.166-0.7-1.866-1.944-1.866-3.267
		c0-2.1,1.711-3.811,3.811-3.811s3.81,1.711,3.81,3.811C29.214,192.998,28.515,194.242,27.348,194.942z M42.511,172.314H8.219
		c-4.277,0-7.854,3.499-7.854,7.854v28.537c0,4.355,3.5,7.854,7.854,7.854h34.292c4.277,0,7.854-3.499,7.854-7.854V180.09
		C50.365,175.813,46.866,172.314,42.511,172.314z M48.266,208.628c0,3.188-2.566,5.754-5.755,5.754H8.219
		c-3.188,0-5.754-2.566-5.754-5.754V180.09c0-3.188,2.566-5.754,5.754-5.754h34.292c3.188,0,5.755,2.565,5.755,5.754V208.628
		L48.266,208.628z"/>
</g>
</svg>
