<?xml version="1.0" encoding="utf-8"?>
<!-- Generator: Adobe Illustrator 16.0.0, SVG Export Plug-In . SVG Version: 6.00 Build 0)  -->
<!DOCTYPE svg PUBLIC "-//W3C//DTD SVG 1.1//EN" "http://www.w3.org/Graphics/SVG/1.1/DTD/svg11.dtd">
<svg version="1.1" id="Layer_1" xmlns="http://www.w3.org/2000/svg" xmlns:xlink="http://www.w3.org/1999/xlink" x="0px" y="0px"
	 width="62px" height="78px" viewBox="0.445 571.14 62 78" enable-background="new 0.445 571.14 62 78" xml:space="preserve">
<path fill="#06A30E" d="M62.194,630.421c0.138-0.345,0.207-0.758,0.207-1.103c0-0.413,0-0.758,0-1.103
	c0-1.171,0.068-2.067-0.276-2.894c0.138-0.345,0.207-0.758,0.207-1.104c0-0.412,0-0.758,0-1.102c0-1.172,0.069-2.067-0.275-2.895
	c0.138-0.344,0.207-0.758,0.207-1.103c0-3.583-6.684-5.168-13.299-5.168c-1.24,0-2.48,0.069-3.721,0.206
	c0-0.619-0.069-1.171-0.276-1.653c0.138-0.345,0.276-0.758,0.276-1.171c0-0.414,0-0.758,0-1.104v-0.068
	c0-1.24,0.069-2.205-0.276-3.031c0.138-0.346,0.276-0.759,0.276-1.172c0-0.414,0-0.758,0-1.172c0-1.24,0.069-2.205-0.276-3.031
	c0.138-0.346,0.276-0.758,0.276-1.172c0-3.721-7.029-5.443-13.989-5.443c-6.959,0-13.988,1.653-13.988,5.443
	c0,0.414,0.068,0.826,0.275,1.172c-0.207,0.619-0.275,1.377-0.275,2.205c-7.374-0.896-16.814,0.551-16.814,4.823
	c0,0.413,0.069,0.758,0.207,1.103c-0.276,0.896-0.207,1.86-0.207,2.963c0,0.344,0,0.689,0,1.103s0.069,0.758,0.207,1.103
	c-0.276,0.826-0.207,1.791-0.207,2.963c0,0.345,0,0.689,0,1.103s0.069,0.759,0.207,1.103c-0.276,0.758-0.207,1.723-0.207,2.895
	c0,0.344,0,0.689,0,1.102c0,0.414,0.069,0.759,0.207,1.104c-0.276,0.826-0.207,1.723-0.207,2.894c0,0.345,0,0.689,0,1.103
	c0,0.414,0.069,0.758,0.207,1.103c-0.276,0.827-0.207,1.792-0.207,2.964c0,0.344,0,0.688,0,1.102c0,0.414,0.069,0.758,0.207,1.104
	c-0.276,0.826-0.207,1.791-0.207,2.894c0,0.345,0,0.688,0,1.103c0,0.482,0.138,0.896,0.345,1.378
	c0.069,0.069,0.482,0.759,0.896,1.034c2.412,1.998,7.787,2.756,11.99,2.756c1.309,0,2.688-0.068,3.928-0.207
	c0.758,2.205,4.755,4.549,13.782,4.549c9.096,0,13.023-2.344,13.781-4.549c1.241,0.139,2.55,0.207,3.928,0.207
	c4.204,0,9.579-0.689,11.99-2.688c0.482-0.413,0.896-1.033,0.965-1.103c0.207-0.413,0.345-0.896,0.345-1.31c0-0.413,0-0.758,0-1.102
	c0-1.172,0.068-2.068-0.276-2.895c0.138-0.345,0.207-0.758,0.207-1.103c0-0.413,0-0.759,0-1.103h-0.551l0.551-0.068
	C62.469,632.143,62.539,631.248,62.194,630.421z M13.752,605.752c1.31,0,2.55,0.068,3.79,0.207c0,0.344,0.069,0.689,0.275,1.033
	c-0.275,0.896-0.275,1.861-0.275,3.032v0.069c0,0.344,0,0.758,0,1.102c0,0.139,0,0.275,0.069,0.414
	c-1.24,0.138-2.481,0.207-3.79,0.207c-5.857,0-9.716-1.24-10.818-2.412c-0.138-0.139-0.345-0.345-0.345-0.62v-0.069l0,0
	C2.657,607.474,6.861,605.752,13.752,605.752z M13.752,613.952c1.31,0,2.55-0.069,3.79-0.206c0,0.481,0,1.033,0,1.652v0.07
	c0,0.344,0,0.758,0,1.102c0,0.069,0,0.139,0,0.207c-1.171,0.138-2.48,0.207-3.79,0.207c-5.03,0-9.44-0.965-10.818-2.412
	c-0.207-0.207-0.345-0.414-0.345-0.62c0-0.413,0-0.759,0-1.103c0-0.345,0-0.689,0-1.033C5.207,613.4,9.962,613.952,13.752,613.952z
	 M13.752,619.12c1.24,0,2.55-0.069,3.79-0.206c-0.069,0.619-0.069,1.24,0,1.998c0,0.344,0,0.689,0,1.033
	c-1.24,0.139-2.48,0.207-3.79,0.207c-5.03,0-9.44-0.965-10.818-2.412c-0.207-0.207-0.345-0.413-0.345-0.689c0-0.413,0-0.758,0-1.102
	c0-0.346,0-0.689,0-0.965C5.207,618.5,9.962,619.12,13.752,619.12z M13.752,624.219c1.31,0,2.619-0.068,3.859-0.206
	c-0.069,0.688-0.069,1.447-0.069,2.274c0,0.206,0,0.482,0,0.758c-1.24,0.138-2.48,0.207-3.79,0.207c-5.03,0-9.44-0.965-10.818-2.412
	c-0.207-0.207-0.345-0.414-0.345-0.621c0-0.412,0-0.758,0-1.102c0-0.345,0-0.689,0-0.965
	C5.207,623.668,9.962,624.219,13.752,624.219z M13.752,629.387c1.31,0,2.619-0.069,3.859-0.207
	c-0.138,0.689-0.138,1.517-0.138,2.481v0.068c0,0.138,0,0.344,0,0.482c-1.171,0.068-2.481,0.138-3.721,0.138
	c-5.03,0-9.44-0.965-10.818-2.412c-0.207-0.206-0.345-0.413-0.345-0.688c0-0.414,0-0.758,0-1.104c0-0.344,0-0.688,0-0.964
	C5.207,628.767,9.962,629.387,13.752,629.387z M13.752,634.486c1.378,0,2.688-0.068,3.928-0.207
	c-0.207,0.828-0.207,1.723-0.207,2.757v0.069c0,0.068,0,0.138,0,0.207c-1.171,0.137-2.481,0.206-3.79,0.206
	c-4.961,0-9.372-1.034-10.75-2.411c-0.207-0.207-0.345-0.414-0.345-0.689c0-0.414,0-0.758,0-1.104c0-0.344,0-0.688,0-0.964
	C5.207,633.935,9.962,634.486,13.752,634.486z M17.473,642.411c-1.171,0.138-2.481,0.206-3.79,0.206
	c-5.03,0-9.44-0.964-10.818-2.411C2.657,640,2.52,639.793,2.52,639.517c0-0.414,0-0.759,0-1.104c0-0.344,0-0.689,0-0.965
	c2.688,1.586,7.373,2.137,11.163,2.137c1.378,0,2.756-0.068,3.997-0.207l0,0C17.473,640.275,17.473,641.24,17.473,642.411z
	 M19.678,638.207c0-0.206,0-0.412,0-0.619v-0.482c0-0.414,0-0.827,0-1.172c0.827,0.482,1.86,0.896,3.101,1.24
	c0.551,0.139,1.103,0.275,1.654,0.414c0.345,0.068,0.62,0.137,0.965,0.207c0.345,0.068,0.689,0.137,1.034,0.137
	c3.239,0.414,6.891,0.414,10.061,0c0.344-0.068,0.689-0.068,1.034-0.137c0.344-0.07,0.689-0.139,0.965-0.207
	c0.551-0.139,1.102-0.207,1.653-0.414c1.241-0.344,2.274-0.758,3.101-1.24c0,0.345,0,0.689,0,1.033v0.621c0,0.207,0,0.413,0,0.619
	c0,0.07,0,0.139-0.069,0.207c-0.069,0.139-0.138,0.345-0.345,0.482c-0.689,0.689-2.136,1.31-4.134,1.792
	c-0.414,0.069-0.827,0.206-1.378,0.275c-3.583,0.62-8.2,0.62-11.852,0c-0.414-0.069-0.827-0.138-1.378-0.275
	c-1.999-0.482-3.445-1.103-4.135-1.792c-0.138-0.138-0.275-0.344-0.344-0.482C19.678,638.414,19.678,638.345,19.678,638.207
	L19.678,638.207L19.678,638.207z M43.313,631.662c0,0.275,0,0.551,0,0.895c0,0.139,0,0.207,0,0.414c0,0.138-0.069,0.207-0.138,0.344
	c-0.069,0.139-0.138,0.207-0.207,0.276c-0.689,0.758-2.343,1.378-4.479,1.86c-0.621,0.139-1.31,0.275-1.999,0.345
	c-1.585,0.206-3.239,0.345-4.961,0.345s-3.445-0.139-4.961-0.345c-0.689-0.069-1.378-0.206-1.998-0.345
	c-2.136-0.482-3.721-1.103-4.479-1.86c-0.138-0.138-0.207-0.206-0.275-0.345c-0.069-0.138-0.138-0.207-0.138-0.344l0,0v-0.069
	c0-0.138,0-0.207,0-0.345c0-0.345,0-0.62,0-0.896c0-0.412,0-0.758,0-1.033c0.896,0.552,2.067,1.033,3.514,1.379
	c0.551,0.137,1.034,0.275,1.585,0.344c0.207,0.069,0.414,0.069,0.62,0.139c0.345,0.068,0.689,0.137,1.034,0.137
	c1.585,0.207,3.308,0.346,5.03,0.346s3.445-0.139,5.03-0.346c0.344-0.068,0.689-0.068,1.034-0.137c0.207,0,0.413-0.069,0.62-0.139
	c0.551-0.068,1.103-0.207,1.585-0.344c1.447-0.346,2.618-0.827,3.514-1.379C43.313,630.903,43.313,631.248,43.313,631.662z
	 M19.678,619.74c1.034,0.62,2.48,1.172,4.272,1.585c0.758,0.138,1.585,0.276,2.412,0.413c1.585,0.207,3.308,0.346,5.099,0.346
	s3.445-0.139,5.099-0.346c0.896-0.137,1.723-0.275,2.48-0.413c1.723-0.413,3.239-0.896,4.272-1.585c0,0.345,0,0.689,0,1.103
	c0,0.345,0,0.759,0,1.241v0.068c0,0.207-0.138,0.413-0.345,0.62l-0.068,0.069c-0.827,0.758-2.619,1.446-4.962,1.929
	c-0.413,0.069-0.896,0.138-1.309,0.207c-1.585,0.206-3.308,0.345-5.099,0.345s-3.514-0.139-5.099-0.345
	c-0.482-0.069-0.896-0.138-1.31-0.207c-2.343-0.482-4.134-1.103-4.961-1.929c0,0,0,0-0.069-0.069
	c-0.207-0.207-0.344-0.413-0.344-0.552v-0.137c0-0.414,0-0.828,0-1.172C19.678,620.429,19.609,620.085,19.678,619.74z
	 M19.678,614.365c1.103,0.689,2.688,1.24,4.617,1.654c0.689,0.138,1.378,0.275,2.067,0.344c1.585,0.207,3.308,0.346,5.168,0.346
	c3.997,0,9.027-0.621,11.852-2.274c0,0.138,0,0.275,0,0.413v1.033c0,0.276,0,0.482,0,0.828c0,0.206-0.138,0.413-0.344,0.688
	c-0.827,0.827-2.688,1.585-5.237,1.999c-0.344,0.068-0.689,0.137-1.103,0.206c-1.585,0.206-3.376,0.345-5.168,0.345
	s-3.514-0.139-5.168-0.345c-0.345-0.069-0.689-0.138-1.034-0.206c-2.205-0.414-3.997-1.034-4.893-1.723
	c-0.138-0.07-0.207-0.207-0.275-0.276c-0.138-0.138-0.276-0.275-0.276-0.413c0-0.069-0.069-0.139-0.069-0.275
	c0-0.414,0-0.828,0-1.172C19.678,615.054,19.609,614.64,19.678,614.365z M43.313,610.024c0,0.345,0,0.758,0,1.24
	c0,0.206-0.138,0.413-0.345,0.688c-1.447,1.517-6.133,2.551-11.438,2.551c-1.792,0-3.445-0.139-5.03-0.346
	c-0.345-0.068-0.689-0.068-1.034-0.137c-2.136-0.346-3.79-0.965-4.823-1.586c-0.207-0.137-0.414-0.275-0.552-0.482
	c-0.069-0.068-0.138-0.206-0.207-0.275c-0.069-0.137-0.138-0.275-0.138-0.413c0-0.413,0-0.827,0-1.171c0-0.414,0-0.758,0-1.104
	c1.171,0.689,2.825,1.31,4.893,1.654c0.551,0.138,1.103,0.207,1.723,0.275c1.654,0.207,3.445,0.345,5.168,0.345
	c3.997,0,9.027-0.62,11.852-2.274C43.313,609.265,43.313,609.611,43.313,610.024z M31.461,597.138c7.304,0,11.783,1.86,11.783,3.238
	v0.069c0,0.206-0.138,0.413-0.344,0.62c-1.447,1.516-6.133,2.549-11.439,2.549c-5.237,0-9.992-1.033-11.439-2.549
	c-0.207-0.207-0.344-0.414-0.344-0.62v-0.069C19.678,598.999,24.226,597.138,31.461,597.138z M19.678,603.478
	c2.756,1.653,7.787,2.273,11.852,2.273c3.997,0,9.027-0.62,11.852-2.273c0,0.344,0,0.688,0,1.102c0,0.346,0,0.758,0,1.24
	c0,0.207-0.138,0.414-0.344,0.689c-1.447,1.516-6.133,2.55-11.439,2.55c-1.723,0-3.445-0.138-4.961-0.345
	c-0.344-0.068-0.689-0.068-1.034-0.138c-2.618-0.482-4.617-1.24-5.443-2.067c-0.207-0.207-0.345-0.482-0.345-0.689v-0.206
	c0-0.276,0-0.482,0-0.759v-0.344C19.678,604.097,19.678,603.822,19.678,603.478z M19.127,627.458l0.551-0.069
	c0-0.413,0-0.826,0-1.171c0-0.413,0-0.758,0-1.103c0.965,0.62,2.274,1.103,3.928,1.447c0.482,0.138,1.034,0.207,1.516,0.344l0,0
	c0.069,0,0.207,0,0.207,0.069c0.344,0.069,0.689,0.138,1.034,0.138c1.585,0.207,3.376,0.345,5.099,0.345s3.445-0.138,5.03-0.345
	c0.344-0.068,0.689-0.068,1.034-0.138c0.138,0,0.207,0,0.275-0.069c0.62-0.137,1.103-0.206,1.516-0.275
	c1.654-0.413,2.963-0.896,3.928-1.447c0,0.345,0,0.689,0,1.104c0,0.344,0,0.758,0,1.171v0.069c0,0.206-0.069,0.344-0.276,0.551
	l-0.068,0.068l-0.069,0.069c-0.689,0.689-2.412,1.378-4.686,1.86c-0.551,0.139-1.103,0.207-1.654,0.275
	c-1.585,0.207-3.308,0.346-5.03,0.346c-1.792,0-3.445-0.139-5.03-0.346c-0.62-0.068-1.171-0.206-1.654-0.275
	c-2.274-0.482-3.997-1.171-4.755-1.93l-0.069-0.068l-0.069-0.068c-0.138-0.207-0.207-0.345-0.275-0.552H19.127L19.127,627.458z
	 M43.313,642.48v0.275c0,0.275,0,0.551,0,0.896c0,0.069,0,0.069,0,0.069c-0.207,1.516-5.099,3.17-11.783,3.17
	s-11.577-1.654-11.783-3.17v-0.069c0-0.345,0-0.62,0-0.896v-0.275c0-0.414,0-0.758,0-1.104c0.689,0.414,1.585,0.828,2.619,1.104
	c0.482,0.137,1.102,0.275,1.723,0.413c2.205,0.482,4.754,0.758,7.511,0.758c2.619,0,5.306-0.275,7.442-0.758
	c0.551-0.138,1.172-0.276,1.723-0.413c1.034-0.346,1.93-0.689,2.688-1.104C43.313,641.653,43.313,642.066,43.313,642.48z
	 M60.334,623.117c0,0.344,0,0.689,0,1.102c0,0.207-0.138,0.414-0.345,0.621c-1.378,1.447-5.857,2.412-10.818,2.412
	c-1.31,0-2.55-0.069-3.721-0.207c0-0.275,0-0.552,0-0.758c0-0.827,0-1.586-0.069-2.274c1.24,0.138,2.48,0.206,3.79,0.206
	c3.79,0,8.544-0.551,11.163-2.135C60.403,622.359,60.403,622.703,60.334,623.117z M45.449,616.639v-0.482
	c1.171-0.138,2.412-0.206,3.721-0.206c6.891,0,11.094,1.723,11.163,3.031v0.068c0,0.207-0.138,0.414-0.345,0.621
	c-1.103,1.171-5.03,2.412-10.818,2.412c-1.31,0-2.55-0.07-3.721-0.207c0-0.345,0-0.689,0-1.034v-0.069
	c0-1.24,0.069-2.205-0.276-3.031C45.381,617.397,45.449,617.052,45.449,616.639z M60.334,638.483c0,0.345,0,0.688,0,1.103v0.068
	c0,0.207-0.138,0.414-0.345,0.621c-1.378,1.447-5.857,2.411-10.818,2.411c-1.31,0-2.55-0.069-3.721-0.206
	c0-1.172,0-2.205-0.276-3.032l0,0c1.31,0.138,2.619,0.206,3.997,0.206c3.79,0,8.544-0.551,11.163-2.136
	C60.403,637.724,60.403,638.07,60.334,638.483z M60.334,633.314c0,0.346,0,0.689,0,1.104v0.068c0,0.207-0.138,0.414-0.345,0.621
	c-1.378,1.446-5.857,2.411-10.818,2.411c-1.31,0-2.55-0.069-3.721-0.206c0-0.069,0-0.139,0-0.207v-0.069
	c0-1.103,0-1.998-0.207-2.757c1.24,0.139,2.549,0.207,3.928,0.207c3.79,0,8.544-0.551,11.163-2.136
	C60.403,632.626,60.403,632.97,60.334,633.314z M60.334,628.216c0,0.345,0,0.689,0,1.103v0.069c0,0.206-0.138,0.413-0.345,0.62
	c-1.378,1.447-5.857,2.412-10.818,2.412c-1.31,0-2.55-0.069-3.721-0.207c0-0.139,0-0.345,0-0.482v-0.068
	c0-0.965,0-1.792-0.138-2.481c1.24,0.138,2.549,0.207,3.859,0.207c3.79,0,8.544-0.552,11.163-2.136
	C60.403,627.527,60.403,627.802,60.334,628.216z"/>
</svg>
