<?xml version="1.0" encoding="utf-8"?>
<!-- Generator: Adobe Illustrator 16.0.0, SVG Export Plug-In . SVG Version: 6.00 Build 0)  -->
<!DOCTYPE svg PUBLIC "-//W3C//DTD SVG 1.1//EN" "http://www.w3.org/Graphics/SVG/1.1/DTD/svg11.dtd">
<svg version="1.1" id="Layer_1" xmlns="http://www.w3.org/2000/svg" xmlns:xlink="http://www.w3.org/1999/xlink" x="0px" y="0px"
	 width="75px" height="78px" viewBox="0.365 141.365 75 78" enable-background="new 0.365 141.365 75 78" xml:space="preserve">
<path fill="#06A30E" d="M55.175,174.957c0-19.775-14.515-32.752-15.132-33.294c-0.014-0.009-0.038-0.02-0.062-0.032
	c-0.047-0.023-0.093-0.047-0.14-0.074c-0.046-0.027-0.083-0.053-0.121-0.078c-0.182-0.084-0.325-0.113-0.464-0.113
	c-0.136,0-0.28,0.03-0.438,0.093c-0.064,0.047-0.106,0.075-0.151,0.101c-0.036,0.021-0.085,0.047-0.134,0.072
	c-0.023,0.012-0.048,0.023-0.07,0.038c-0.609,0.536-15.122,13.512-15.122,33.286c0,10.507,6.075,19.315,14.131,20.491l0.597,0.087
	v22.432c0,0.654,0.533,1.188,1.188,1.188c0.655,0,1.188-0.533,1.188-1.188v-22.432l0.598-0.087
	C49.1,194.271,55.175,185.463,55.175,174.957z M38.07,193.158l-0.837-0.17c-6.565-1.33-11.517-9.082-11.517-18.031
	c0-3.188,0.44-6.466,1.308-9.745l0.25-0.944l10.795,7.201V193.158z M38.07,168.613l-10.039-6.691l0.192-0.518
	c2.401-6.472,6.011-11.493,8.616-14.566l1.231-1.451V168.613z M40.445,145.386l1.231,1.451c3.342,3.94,9.182,12.137,10.728,22.752
	l0.064,0.437l-12.022,8.013V145.386z M40.445,180.894l12.285-8.191l0.032,1.266c0.002,0.129,0.009,0.256,0.016,0.383
	c0.01,0.2,0.02,0.4,0.02,0.604c0,8.949-4.951,16.702-11.515,18.033l-0.837,0.17V180.894z M75.365,197.933
	c0-11.057-8.09-18.263-8.435-18.564c-0.218-0.191-0.496-0.297-0.786-0.297c-0.289,0-0.568,0.105-0.785,0.296
	c-0.344,0.304-8.436,7.554-8.436,18.565c0,5.525,3.072,10.374,7.304,11.527l0.515,0.141v8.363c0,0.654,0.533,1.188,1.188,1.188
	c0.655,0,1.188-0.533,1.188-1.188v-8.297l0.552-0.119C72.129,208.59,75.365,203.705,75.365,197.933z M66.145,207.35
	c-0.796,0-1.613-0.222-2.431-0.659c-2.641-1.418-4.415-4.938-4.415-8.758c0-7.233,3.962-12.776,6.324-15.438l0.522-0.588
	l0.522,0.589c2.361,2.661,6.322,8.205,6.322,15.437c0,4.079-2.017,7.771-4.905,8.981C67.37,207.213,66.754,207.35,66.145,207.35z
	 M30.733,206.618c0.424-0.495,0.367-1.247-0.129-1.674l-14.14-12.118c-0.432-0.371-1.115-0.371-1.547,0L0.778,204.944
	c-0.496,0.427-0.554,1.179-0.128,1.675c0.409,0.476,1.194,0.539,1.674,0.127l2.081-1.785v13.004c0,0.654,0.532,1.188,1.186,1.188
	H25.79c0.654,0,1.187-0.533,1.187-1.188v-13.004l2.081,1.785C29.536,207.156,30.324,207.094,30.733,206.618z M24.605,216.776H6.777
	v-13.849l8.914-7.639l8.914,7.639V216.776z"/>
</svg>
