<?xml version="1.0" encoding="utf-8"?>
<!-- Generator: Adobe Illustrator 16.0.0, SVG Export Plug-In . SVG Version: 6.00 Build 0)  -->
<!DOCTYPE svg PUBLIC "-//W3C//DTD SVG 1.1//EN" "http://www.w3.org/Graphics/SVG/1.1/DTD/svg11.dtd">
<svg version="1.1" id="Layer_1" xmlns="http://www.w3.org/2000/svg" xmlns:xlink="http://www.w3.org/1999/xlink" x="0px" y="0px"
	 width="73px" height="78px" viewBox="0.365 140.365 73 78" enable-background="new 0.365 140.365 73 78" xml:space="preserve">
<g transform="translate(0,-952.36218)">
	<path fill="#06A30E" d="M64.462,1093.727c-0.253,0-0.477,0.107-0.639,0.277c-0.153,0.16-16.581,23.508-16.581,23.508
		c-1.031-0.441-2.148-0.658-3.283-0.639c-1.417,0.023-2.859,0.383-4.256,1.001c-2.659,1.177-5.151,3.317-6.9,6.12
		c-0.74,1.201-1.614,2.561-2.392,3.563c-7.846,10.035-21.652,13.997-29.156,15.996c0,0-0.316,0.066-0.445,0.139
		c-0.272,0.152-0.445,0.445-0.445,0.779c0,0.297,0.56,0.964,0.89,1.502c3.304,4.619,6.624,8.197,11.017,11.656
		c0.308,0.237,0.776,0.237,1.085,0l5.981-4.367l-3.701,5.842c-0.264,0.397-0.129,1.004,0.278,1.252
		c4.02,2.443,8.614,4.844,12.63,6.315c0.31,0.111,0.68,0.033,0.918-0.195l6.287-5.786l-3.227,5.564
		c-0.274,0.468,0.006,1.161,0.528,1.307c4.324,1.286,8.357,2.511,11.824,2.699c0,0,0.398,0.027,0.889,0.027
		c0.23,0,0.439-0.086,0.597-0.229c0.181-0.163,0.405-0.661,0.405-0.661c0.449-0.8,15.888-28.222,15.913-28.265
		c1.667-2.962,2.313-6.221,1.976-9.126c-0.312-2.681-1.508-5.063-3.533-6.538c0,0,11.977-25.695,12.13-25.956
		c0.079-0.133,0.111-0.279,0.111-0.444c0-0.33-0.181-0.625-0.445-0.779c-0.131-0.077-7.701-4.215-7.9-4.367
		C64.869,1093.806,64.667,1093.727,64.462,1093.727z M64.713,1095.786l6.594,3.672l-11.684,25.066l-10.795-6.176L64.713,1095.786z
		 M11.048,1106.19c-1.956,0-3.561,1.605-3.561,3.562s1.605,3.562,3.561,3.562c1.956,0,3.561-1.605,3.561-3.562
		S13.004,1106.19,11.048,1106.19z M11.048,1107.97c0.994,0,1.781,0.786,1.781,1.781c0,0.993-0.787,1.78-1.781,1.78
		c-0.994,0-1.78-0.787-1.78-1.78C9.268,1108.756,10.054,1107.97,11.048,1107.97z M20.841,1111.532c-1.956,0-3.561,1.605-3.561,3.561
		c0,1.957,1.605,3.562,3.561,3.562s3.561-1.604,3.561-3.562C24.402,1113.137,22.797,1111.532,20.841,1111.532z M20.841,1113.313
		c0.994,0,1.78,0.786,1.78,1.779c0,0.994-0.786,1.781-1.78,1.781c-0.994,0-1.78-0.787-1.78-1.781
		C19.061,1114.099,19.847,1113.313,20.841,1113.313z M43.987,1118.681c1.136-0.026,2.19,0.193,3.116,0.724l12.463,7.122
		c1.866,1.065,3.015,3.151,3.311,5.703c0.268,2.302-0.203,4.957-1.446,7.429l-26.875-15.107c1.546-2.307,3.691-4.07,5.87-5.035
		C41.636,1118.981,42.852,1118.708,43.987,1118.681z M14.609,1122.214c-2.447,0-4.451,2.003-4.451,4.452
		c0,2.447,2.004,4.451,4.451,4.451c2.448,0,4.452-2.004,4.452-4.451C19.061,1124.217,17.057,1122.214,14.609,1122.214z
		 M14.609,1123.995c1.486,0,2.671,1.186,2.671,2.672c0,1.484-1.185,2.67-2.671,2.67c-1.485,0-2.67-1.186-2.67-2.67
		C11.938,1125.18,13.124,1123.995,14.609,1123.995z M33.583,1126.026l27.014,15.218l-15.329,27.181
		c-2.888-0.096-6.571-1.067-10.6-2.254l5.647-9.682c0.292-0.363,0.225-0.96-0.139-1.252c-0.365-0.291-0.961-0.225-1.252,0.139
		l-10.266,9.404c-3.481-1.326-7.399-3.373-10.989-5.509l5.703-8.985c0.223-0.348,0.162-0.859-0.139-1.141
		c-0.302-0.281-0.809-0.302-1.141-0.056l-9.181,6.677c-3.972-3.199-7.064-6.56-10.126-10.822
		C11.134,1142.696,26.023,1138.165,33.583,1126.026z"/>
</g>
</svg>
