<?xml version="1.0" encoding="utf-8"?>
<!-- Generator: Adobe Illustrator 16.0.0, SVG Export Plug-In . SVG Version: 6.00 Build 0)  -->
<!DOCTYPE svg PUBLIC "-//W3C//DTD SVG 1.1//EN" "http://www.w3.org/Graphics/SVG/1.1/DTD/svg11.dtd">
<svg version="1.1" id="Layer_1" xmlns="http://www.w3.org/2000/svg" xmlns:xlink="http://www.w3.org/1999/xlink" x="0px" y="0px"
	 width="453px" height="29px" viewBox="0 0 453 29" enable-background="new 0 0 453 29" xml:space="preserve">
<path fill="#FFFFFF" d="M185.218,6.96c-4.35,0-7.62,3.06-7.62,7.71c0,4.68,3.3,7.53,7.74,7.53c2.73,0,4.77-0.96,6.18-2.88l-2.4-1.92
	c-0.81,1.14-2.01,1.86-3.81,1.86c-2.1,0-3.96-1.5-4.11-3.54h10.95c0.03-0.33,0.03-0.63,0.03-0.96
	C192.178,9.57,189.238,6.96,185.218,6.96z M181.198,13.14c0.15-2.01,1.86-3.479,3.99-3.479c2.34,0,3.39,1.62,3.39,3.479H181.198z
	 M167.458,14.58c0,2.25,1.35,4.62,4.08,4.62c1.11,0,2.34-0.45,3.03-1.29l2.25,2.28c-1.2,1.29-3.18,2.01-5.31,2.01
	c-4.26,0-7.8-2.82-7.8-7.62c0-4.68,3.48-7.62,7.71-7.62c2.1,0,4.29,0.84,5.43,2.25l-2.46,2.16c-0.57-0.81-1.8-1.41-2.97-1.41
	C168.778,9.96,167.458,12.33,167.458,14.58z M247.857,14.22v-0.06c1.44-0.36,2.43-1.53,2.43-3.03c0-3.06-2.79-3.75-5.04-3.75h-7.44
	v14.4h7.65c3.18,0,5.46-1.44,5.46-4.08C250.917,15.72,249.567,14.49,247.857,14.22z M241.407,9.93h3.15c1.38,0,2.25,0.42,2.25,1.62
	c0,1.17-0.93,1.59-1.98,1.59h-3.42V9.93z M244.797,19.2h-3.39v-3.48h3.48c1.53,0,2.4,0.51,2.4,1.74S246.297,19.2,244.797,19.2z
	 M212.488,17.79c0,2.94-2.88,4.47-6.24,4.47c-2.67,0-4.83-0.9-6.3-2.61l2.16-2.1c0.78,1.05,2.22,1.92,3.87,1.92
	c1.56,0,2.85-0.42,2.85-1.83c0-1.62-1.5-1.95-3.33-1.95h-1.14v-2.58h1.14c1.74,0,2.97-0.42,2.97-1.83c0-1.23-1.11-1.59-2.43-1.59
	c-1.32,0-2.67,0.63-3.45,1.65l-2.01-1.95c1.2-1.53,3.33-2.43,5.88-2.43c3.33,0,5.64,1.44,5.64,3.93c0,1.68-1.26,2.97-2.88,3.33v0.06
	C211.078,14.64,212.488,15.87,212.488,17.79z M221.188,6.96c-2.189,0-4.47,0.78-6.09,2.28l1.86,2.19c0.93-0.93,2.4-1.65,3.93-1.65
	c1.8,0,3.3,0.87,3.3,2.64v0.36c-4.5,0-9.899,0.6-9.899,4.89c0,3.36,3.09,4.47,5.4,4.47c2.04,0,3.75-0.93,4.47-2.19h0.09v1.83h3.36
	v-8.76C227.608,10.14,226.348,6.96,221.188,6.96z M224.188,15.72c0,2.28-1.32,3.69-3.78,3.69c-1.23,0-2.52-0.42-2.52-1.8
	c0-2.13,3.21-2.4,5.49-2.4h0.81V15.72z M150.329,7.38h3.899v14.4h-3.6v-9.24h-0.06l-6.24,9.24h-3.96V7.38h3.6v9.3h0.06L150.329,7.38
	z M125.009,7.38h11.79v14.4h-3.6V10.26h-4.74v3.06c0,5.91-1.65,8.64-5.34,8.64c-0.54,0-1.8-0.12-2.16-0.24l0.27-2.94
	c0.27,0.09,0.63,0.15,0.96,0.15c1.71,0,2.82-1.32,2.82-6.42V7.38z M19.5,6.96c-2.64,0-4.26,1.29-4.979,2.43h-0.09V7.38h-3.45v21.6
	h3.6v-9.12h0.06c0.93,1.44,2.76,2.34,4.77,2.34c4.38,0,7.08-3.48,7.08-7.68C26.49,10.26,23.61,6.96,19.5,6.96z M18.69,19.2
	c-2.64,0-4.23-2.37-4.23-4.62s1.59-4.68,4.23-4.68c2.79,0,4.14,2.37,4.14,4.62S21.48,19.2,18.69,19.2z M12.75,3.84H3.78v17.94H0
	V0.54h12.75V3.84z M39.18,7.38h3.9v14.4h-3.6v-9.24h-0.06l-6.24,9.24h-3.96V7.38h3.6v9.3h0.06L39.18,7.38z M106.529,6.96
	c-4.35,0-7.62,3.06-7.62,7.71c0,4.68,3.3,7.53,7.74,7.53c2.73,0,4.77-0.96,6.18-2.88l-2.4-1.92c-0.81,1.14-2.01,1.86-3.81,1.86
	c-2.1,0-3.96-1.5-4.11-3.54h10.95c0.03-0.33,0.03-0.63,0.03-0.96C113.489,9.57,110.549,6.96,106.529,6.96z M102.509,13.14
	c0.15-2.01,1.86-3.479,3.99-3.479c2.34,0,3.39,1.62,3.39,3.479H102.509z M61.919,14.22l6.24,7.56h-4.44l-5.58-6.96h-0.09v6.96h-3.6
	v-6.96h-0.09l-5.55,6.96h-4.47l6.24-7.56l-5.73-6.84h4.44l5.07,6.57h0.09V7.38h3.6v6.57h0.09l5.1-6.57h4.44L61.919,14.22z
	 M85.29,7.38h12.81v2.88h-4.59v11.52h-3.6V10.26h-4.62V7.38z M79.38,7.38h3.899v14.4h-3.6v-9.24h-0.06l-6.24,9.24h-3.96V7.38h3.6
	v9.3h0.06L79.38,7.38z M396.295,6.96c-2.19,0-4.47,0.78-6.09,2.28l1.86,2.19c0.93-0.93,2.4-1.65,3.93-1.65c1.8,0,3.3,0.87,3.3,2.64
	v0.36c-4.5,0-9.9,0.6-9.9,4.89c0,3.36,3.09,4.47,5.4,4.47c2.04,0,3.75-0.93,4.47-2.19h0.09v1.83h3.36v-8.76
	C402.715,10.14,401.455,6.96,396.295,6.96z M399.295,15.72c0,2.28-1.32,3.69-3.78,3.69c-1.23,0-2.52-0.42-2.52-1.8
	c0-2.13,3.21-2.4,5.49-2.4h0.81V15.72z M419.604,7.38h-11.7v3.72c0,4.02-0.9,6.3-2.01,7.74h-1.5v7.05h3.03v-4.11h11.28v4.11h3.03
	v-7.05h-2.13V7.38z M416.004,18.84h-6.3c0.9-1.56,1.62-3.45,1.62-6.81v-1.77h4.68V18.84z M447.834,19.62c0,1.29-1.08,2.34-2.4,2.34
	c-1.26,0-2.4-0.99-2.4-2.28s1.08-2.34,2.4-2.34C446.724,17.34,447.834,18.33,447.834,19.62z M452.154,5.79c0,2.55-1.14,3.69-3,5.31
	c-1.56,1.38-1.98,1.89-1.98,3.63v0.78h-3.54v-1.14c0-1.92,0.48-2.94,1.98-4.38l1.35-1.29c0.75-0.69,1.38-1.47,1.38-2.67
	c0-1.56-1.05-2.76-2.82-2.76c-1.86,0-3,1.5-3.06,3.12l-3.69-0.33c0.45-3.81,3.3-6.06,6.99-6.06C449.214,0,452.154,2.01,452.154,5.79
	z M380.695,6.96c-2.64,0-4.26,1.29-4.98,2.43h-0.09V7.38h-3.45v21.6h3.6v-9.12h0.06c0.93,1.44,2.76,2.34,4.77,2.34
	c4.38,0,7.08-3.48,7.08-7.68C387.685,10.26,384.805,6.96,380.695,6.96z M379.885,19.2c-2.64,0-4.23-2.37-4.23-4.62
	s1.59-4.68,4.23-4.68c2.79,0,4.14,2.37,4.14,4.62S382.675,19.2,379.885,19.2z M429.624,6.96c-2.19,0-4.47,0.78-6.09,2.28l1.86,2.19
	c0.93-0.93,2.4-1.65,3.93-1.65c1.8,0,3.3,0.87,3.3,2.64v0.36c-4.5,0-9.9,0.6-9.9,4.89c0,3.36,3.09,4.47,5.4,4.47
	c2.04,0,3.75-0.93,4.47-2.19h0.09v1.83h3.36v-8.76C436.044,10.14,434.784,6.96,429.624,6.96z M432.624,15.72
	c0,2.28-1.32,3.69-3.78,3.69c-1.23,0-2.52-0.42-2.52-1.8c0-2.13,3.21-2.4,5.49-2.4h0.81V15.72z M287.307,7.38h3.6v14.4h-21.51V7.38
	h3.6v11.46h5.37V7.38h3.6v11.46h5.34V7.38z M259.527,6.96c-2.19,0-4.47,0.78-6.09,2.28l1.86,2.19c0.93-0.93,2.4-1.65,3.93-1.65
	c1.8,0,3.3,0.87,3.3,2.64v0.36c-4.5,0-9.9,0.6-9.9,4.89c0,3.36,3.09,4.47,5.4,4.47c2.04,0,3.75-0.93,4.47-2.19h0.09v1.83h3.36v-8.76
	C265.947,10.14,264.687,6.96,259.527,6.96z M262.527,15.72c0,2.28-1.32,3.69-3.78,3.69c-1.23,0-2.52-0.42-2.52-1.8
	c0-2.13,3.21-2.4,5.49-2.4h0.81V15.72z M300.537,6.96c-2.19,0-4.47,0.78-6.09,2.28l1.86,2.19c0.93-0.93,2.4-1.65,3.93-1.65
	c1.8,0,3.3,0.87,3.3,2.64v0.36c-4.5,0-9.9,0.6-9.9,4.89c0,3.36,3.09,4.47,5.4,4.47c2.04,0,3.75-0.93,4.47-2.19h0.09v1.83h3.36v-8.76
	C306.957,10.14,305.696,6.96,300.537,6.96z M303.537,15.72c0,2.28-1.32,3.69-3.78,3.69c-1.23,0-2.52-0.42-2.52-1.8
	c0-2.13,3.21-2.4,5.49-2.4h0.81V15.72z M360.056,7.38h10.109v2.88h-6.51v11.52h-3.6V7.38z M349.076,14.58
	c0,2.25,1.35,4.62,4.08,4.62c1.11,0,2.34-0.45,3.03-1.29l2.25,2.28c-1.2,1.29-3.18,2.01-5.31,2.01c-4.26,0-7.8-2.82-7.8-7.62
	c0-4.68,3.48-7.62,7.71-7.62c2.1,0,4.29,0.84,5.43,2.25l-2.46,2.16c-0.57-0.81-1.8-1.41-2.97-1.41
	C350.396,9.96,349.076,12.33,349.076,14.58z M308.846,7.38h12.81v2.88h-4.59v11.52h-3.6V10.26h-4.62V7.38z M329.546,6.96
	c-2.19,0-4.47,0.78-6.09,2.28l1.86,2.19c0.93-0.93,2.4-1.65,3.93-1.65c1.8,0,3.3,0.87,3.3,2.64v0.36c-4.5,0-9.9,0.6-9.9,4.89
	c0,3.36,3.09,4.47,5.4,4.47c2.04,0,3.75-0.93,4.47-2.19h0.09v1.83h3.36v-8.76C335.966,10.14,334.706,6.96,329.546,6.96z
	 M332.546,15.72c0,2.28-1.32,3.69-3.78,3.69c-1.23,0-2.52-0.42-2.52-1.8c0-2.13,3.21-2.4,5.49-2.4h0.81V15.72z"/>
</svg>
