<?xml version="1.0" encoding="utf-8"?>
<!-- Generator: Adobe Illustrator 16.0.0, SVG Export Plug-In . SVG Version: 6.00 Build 0)  -->
<!DOCTYPE svg PUBLIC "-//W3C//DTD SVG 1.1//EN" "http://www.w3.org/Graphics/SVG/1.1/DTD/svg11.dtd">
<svg version="1.1" id="Layer_1" xmlns="http://www.w3.org/2000/svg" xmlns:xlink="http://www.w3.org/1999/xlink" x="0px" y="0px"
	 width="451px" height="30px" viewBox="0 0 451 30" enable-background="new 0 0 451 30" xml:space="preserve">
<path fill="#FFFFFF" d="M0,22.68h3.78V4.74h9.75v17.94h3.78V1.44H0V22.68z M20.22,15.42c0,4.53,3.48,7.68,7.83,7.68
	c4.35,0,7.83-3.15,7.83-7.68c0-4.53-3.48-7.56-7.83-7.56C23.7,7.86,20.22,10.89,20.22,15.42z M23.88,15.42
	c0-2.25,1.32-4.62,4.17-4.62s4.17,2.37,4.17,4.62s-1.32,4.68-4.17,4.68S23.88,17.67,23.88,15.42z M36.839,26.79h3.03v-4.11h11.28
	v4.11h3.03v-7.05h-2.13V8.28h-11.7V12c0,4.02-0.9,6.3-2.01,7.74h-1.5V26.79z M42.149,19.74c0.9-1.56,1.62-3.45,1.62-6.81v-1.77h4.68
	v8.58H42.149z M55.019,26.79h3.03v-4.11h11.28v4.11h3.03v-7.05h-2.13V8.28h-11.7V12c0,4.02-0.9,6.3-2.01,7.74h-1.5V26.79z
	 M60.329,19.74c0.9-1.56,1.62-3.45,1.62-6.81v-1.77h4.68v8.58H60.329z M74.369,8.28v21.6h3.6v-9.12h0.06
	c0.93,1.44,2.76,2.34,4.77,2.34c4.38,0,7.08-3.48,7.08-7.68c0-4.26-2.88-7.56-6.99-7.56c-2.64,0-4.26,1.29-4.98,2.43h-0.09V8.28
	H74.369z M86.218,15.42c0,2.25-1.35,4.68-4.14,4.68c-2.64,0-4.23-2.37-4.23-4.62s1.59-4.68,4.23-4.68
	C84.869,10.8,86.218,13.17,86.218,15.42z M94.319,22.68h6.72c3.42,0,5.82-1.56,5.82-4.71c0-3.24-2.43-4.65-5.82-4.65h-3.12V8.28
	h-7.47v2.88h3.87V22.68z M97.919,19.95v-3.93h2.189c2.25,0,3.15,0.54,3.15,1.98c0,1.41-1.02,1.95-3.15,1.95H97.919z M107.009,22.68
	h4.47l5.55-6.96h0.09v6.96h3.6v-6.96h0.09l5.58,6.96h4.44l-6.24-7.56l5.76-6.84h-4.44l-5.1,6.57h-0.09V8.28h-3.6v6.57h-0.09
	l-5.07-6.57h-4.44l5.73,6.84L107.009,22.68z M132.088,22.68h3.6v-6.84h0.09l5.97,6.84h4.62l-6.81-7.62l6.33-6.78h-4.56l-5.55,6.39
	h-0.09V8.28h-3.6V22.68z M156.568,22.68h3.36v-8.76c0-2.88-1.26-6.06-6.42-6.06c-2.19,0-4.47,0.78-6.09,2.28l1.86,2.19
	c0.93-0.93,2.4-1.65,3.93-1.65c1.8,0,3.3,0.87,3.3,2.64v0.36c-4.5,0-9.9,0.6-9.9,4.89c0,3.36,3.09,4.47,5.4,4.47
	c2.04,0,3.75-0.93,4.47-2.19h0.09V22.68z M156.508,16.62c0,2.28-1.32,3.69-3.78,3.69c-1.23,0-2.52-0.42-2.52-1.8
	c0-2.13,3.209-2.4,5.49-2.4h0.81V16.62z M166.438,22.68h3.6V11.16h4.59V8.28h-12.81v2.88h4.62V22.68z M185.578,22.68h3.36v-8.76
	c0-2.88-1.26-6.06-6.42-6.06c-2.19,0-4.47,0.78-6.09,2.28l1.86,2.19c0.93-0.93,2.4-1.65,3.93-1.65c1.8,0,3.3,0.87,3.3,2.64v0.36
	c-4.5,0-9.9,0.6-9.9,4.89c0,3.36,3.09,4.47,5.4,4.47c2.04,0,3.75-0.93,4.47-2.19h0.09V22.68z M185.518,16.62
	c0,2.28-1.32,3.69-3.78,3.69c-1.23,0-2.52-0.42-2.52-1.8c0-2.13,3.21-2.4,5.49-2.4h0.81V16.62z M206.007,5.76
	c2.73,0,4.35-1.5,4.68-4.05l-1.92-0.39c-0.21,1.38-1.32,2.1-2.76,2.1s-2.52-0.72-2.73-2.1l-1.95,0.21
	C201.688,4.08,203.247,5.76,206.007,5.76z M199.138,22.68h3.959l6.24-9.24h0.06v9.24h3.6V8.28h-3.9l-6.3,9.3h-0.06v-9.3h-3.6V22.68z
	 M226.077,14.04c0.15-2.01,1.86-3.479,3.99-3.479c2.34,0,3.39,1.62,3.39,3.479H226.077z M237.057,15.66c0-5.19-2.94-7.8-6.96-7.8
	c-4.35,0-7.62,3.06-7.62,7.71c0,4.68,3.3,7.53,7.74,7.53c2.73,0,4.77-0.96,6.18-2.88l-2.4-1.92c-0.81,1.14-2.01,1.86-3.81,1.86
	c-2.1,0-3.96-1.5-4.11-3.54h10.95C237.057,16.29,237.057,15.99,237.057,15.66z M250.977,20.189v-9.27c3.03,0.06,4.77,1.8,4.77,4.59
	S254.066,20.13,250.977,20.189z M250.977,29.879v-6.72c5.34-0.06,8.43-3.18,8.43-7.62c0-4.68-3.12-7.5-8.43-7.59V0h-3.6v7.95
	c-5.31,0.09-8.43,2.91-8.43,7.59c0,4.44,3.09,7.56,8.43,7.62v6.72H250.977z M247.376,20.189c-3.09-0.06-4.77-1.89-4.77-4.68
	s1.74-4.53,4.77-4.59V20.189z M264.896,14.04c0.15-2.01,1.86-3.479,3.99-3.479c2.34,0,3.39,1.62,3.39,3.479H264.896z M275.876,15.66
	c0-5.19-2.94-7.8-6.959-7.8c-4.35,0-7.62,3.06-7.62,7.71c0,4.68,3.3,7.53,7.74,7.53c2.73,0,4.77-0.96,6.18-2.88l-2.4-1.92
	c-0.81,1.14-2.01,1.86-3.81,1.86c-2.1,0-3.96-1.5-4.11-3.54h10.95C275.876,16.29,275.876,15.99,275.876,15.66z M278.606,22.68h3.6
	v-6.84h0.09l5.97,6.84h4.62l-6.81-7.62l6.33-6.78h-4.56l-5.55,6.39h-0.09V8.28h-3.6V22.68z M297.206,22.68h3.6V11.16h4.59V8.28
	h-12.81v2.88h4.62V22.68z M307.406,22.68h3.96l6.24-9.24h0.06v9.24h3.6V8.28h-3.9l-6.3,9.3h-0.06v-9.3h-3.6V22.68z M324.835,22.68
	h7.65c3.18,0,5.46-1.44,5.46-4.08c0-1.98-1.35-3.21-3.06-3.48v-0.06c1.44-0.36,2.43-1.53,2.43-3.03c0-3.06-2.79-3.75-5.04-3.75
	h-7.44V22.68z M328.436,20.1v-3.48h3.48c1.53,0,2.4,0.51,2.4,1.74s-0.99,1.74-2.49,1.74H328.436z M328.436,14.04V10.83h3.15
	c1.38,0,2.25,0.42,2.25,1.62c0,1.17-0.93,1.59-1.98,1.59H328.436z M340.675,22.68h3.6v-6.09h6.06v6.09h3.6V8.28h-3.6v5.43h-6.06
	V8.28h-3.6V22.68z M366.445,22.68h3.36v-8.76c0-2.88-1.26-6.06-6.42-6.06c-2.19,0-4.47,0.78-6.09,2.28l1.86,2.19
	c0.93-0.93,2.4-1.65,3.93-1.65c1.8,0,3.3,0.87,3.3,2.64v0.36c-4.5,0-9.9,0.6-9.9,4.89c0,3.36,3.09,4.47,5.4,4.47
	c2.04,0,3.75-0.93,4.47-2.19h0.09V22.68z M366.385,16.62c0,2.28-1.32,3.69-3.78,3.69c-1.23,0-2.521-0.42-2.521-1.8
	c0-2.13,3.21-2.4,5.49-2.4h0.81V16.62z M380.155,22.86c3.69,0,5.34-2.73,5.34-8.64v-3.06h4.74v11.52h3.6V8.28h-11.79v5.13
	c0,5.1-1.11,6.42-2.82,6.42c-0.33,0-0.69-0.06-0.96-0.15l-0.27,2.94C378.355,22.74,379.615,22.86,380.155,22.86z M397.405,22.68
	h3.96l6.24-9.24h0.06v9.24h3.6V8.28h-3.9l-6.3,9.3h-0.06v-9.3h-3.6V22.68z M424.344,14.04c0.15-2.01,1.86-3.479,3.99-3.479
	c2.34,0,3.39,1.62,3.39,3.479H424.344z M435.324,15.66c0-5.19-2.94-7.8-6.96-7.8c-4.35,0-7.62,3.06-7.62,7.71
	c0,4.68,3.3,7.53,7.74,7.53c2.73,0,4.77-0.96,6.18-2.88l-2.4-1.92c-0.81,1.14-2.01,1.86-3.81,1.86c-2.1,0-3.96-1.5-4.11-3.54h10.95
	C435.324,16.29,435.324,15.99,435.324,15.66z M445.734,16.41v-0.78c0-1.74,0.42-2.25,1.98-3.63c1.86-1.62,3-2.76,3-5.31
	c0-3.78-2.94-5.79-6.39-5.79c-3.69,0-6.54,2.25-6.99,6.06l3.69,0.33c0.06-1.62,1.2-3.12,3.06-3.12c1.77,0,2.82,1.2,2.82,2.76
	c0,1.2-0.63,1.98-1.38,2.67l-1.35,1.29c-1.5,1.44-1.98,2.46-1.98,4.38v1.14H445.734z M441.594,20.58c0,1.29,1.14,2.28,2.4,2.28
	c1.32,0,2.4-1.05,2.4-2.34s-1.11-2.28-2.4-2.28C442.674,18.24,441.594,19.29,441.594,20.58z"/>
</svg>
