<?xml version="1.0" encoding="utf-8"?>
<!-- Generator: Adobe Illustrator 16.0.0, SVG Export Plug-In . SVG Version: 6.00 Build 0)  -->
<!DOCTYPE svg PUBLIC "-//W3C//DTD SVG 1.1//EN" "http://www.w3.org/Graphics/SVG/1.1/DTD/svg11.dtd">
<svg version="1.1" id="Layer_1" xmlns="http://www.w3.org/2000/svg" xmlns:xlink="http://www.w3.org/1999/xlink" x="0px" y="0px"
	 width="416px" height="26px" viewBox="0 0 416 26" enable-background="new 0 0 416 26" xml:space="preserve">
<path fill="#FFFFFF" d="M65.831,5.807h-7.113V25.11h4.678v-7.279h2.325c4.049,0,7.688-1.608,7.688-6.08
	C73.409,7.334,70.071,5.807,65.831,5.807z M65.366,14.123h-1.97V9.569h2.052c1.669,0,3.283,0.354,3.283,2.208
	C68.73,13.604,67.117,14.123,65.366,14.123z M109.499,5.807h4.924V25.11H109.8V12.705h-0.082l-7.387,12.405h-5.006V5.807h4.624
	v12.705h0.109L109.499,5.807z M88.403,5.807h4.924V25.11h-4.624V12.705h-0.082L81.235,25.11h-5.006V5.807h4.624v12.705h0.109
	L88.403,5.807z M116.56,5.807h15.622v3.98h-5.472V25.11h-4.678V9.788h-5.472V5.807z M138.832,21.129h9v3.98h-13.515V5.807h13.022
	V9.76h-8.508v3.626h8.043v3.735h-8.043V21.129z M164.879,5.807h-7.113V25.11h4.678v-7.279h2.325c4.049,0,7.688-1.608,7.688-6.08
	C172.458,7.334,169.12,5.807,164.879,5.807z M164.414,14.123h-1.97V9.569h2.052c1.669,0,3.283,0.354,3.283,2.208
	C167.779,13.604,166.165,14.123,164.414,14.123z M100.909,0.463L103.234,0c0.165,1.145,1.094,1.827,2.462,1.827
	c1.34,0,2.271-0.682,2.435-1.827l2.353,0.463c-0.438,2.645-2.298,3.817-4.788,3.817C103.207,4.28,101.319,3.108,100.909,0.463z
	 M415.429,18.648h-4.596V5.807h4.596V18.648z M10.533,5.289C4.487,5.289,0,9.188,0,15.377c0,6.107,4.487,10.251,10.533,10.251
	c6.073,0,10.56-4.144,10.56-10.251C21.093,9.188,16.606,5.289,10.533,5.289z M10.533,21.375c-3.255,0-5.526-2.508-5.526-5.998
	c0-3.381,2.243-5.889,5.526-5.889c3.283,0,5.554,2.508,5.554,5.889C16.086,18.867,13.788,21.375,10.533,21.375z M21.506,5.807
	h15.621v3.98h-5.471V25.11h-4.679V9.788h-5.471V5.807z M48.374,14.695L57.21,25.11h-6.101l-7.195-8.888h-0.055v8.888h-4.596V5.807
	h4.596v7.852h0.083l6.921-7.852h5.854L48.374,14.695z M356.327,19.385l3.255,3.053c-1.696,1.963-4.268,3.19-7.523,3.19
	c-5.964,0-10.423-4.144-10.423-10.197c0-6.189,4.596-10.142,10.505-10.142c2.708,0,5.636,0.981,7.25,2.835l-3.173,3.163
	c-0.875-1.2-2.435-1.772-3.912-1.772c-3.256,0-5.581,2.508-5.581,5.916c0,3.517,2.271,5.917,5.499,5.917
	C354.056,21.348,355.506,20.53,356.327,19.385z M366.096,21.129h9v3.98h-13.515V5.807h13.022V9.76h-8.508v3.626h8.043v3.735h-8.043
	V21.129z M322.043,5.289c-6.046,0-10.533,3.899-10.533,10.088c0,6.107,4.487,10.251,10.533,10.251
	c6.074,0,10.561-4.144,10.561-10.251C332.604,9.188,328.117,5.289,322.043,5.289z M322.043,21.375c-3.255,0-5.526-2.508-5.526-5.998
	c0-3.381,2.243-5.889,5.526-5.889c3.283,0,5.554,2.508,5.554,5.889C327.597,18.867,325.299,21.375,322.043,21.375z M415.812,22.792
	c0,1.445-1.204,2.59-2.681,2.59c-1.423,0-2.654-1.118-2.654-2.563c0-1.417,1.176-2.59,2.654-2.59
	C414.608,20.23,415.812,21.375,415.812,22.792z M396.057,5.807l-8.125,19.303h5.089l1.422-3.79h7.496l1.504,3.79h5.198
	l-8.043-19.303H396.057z M395.783,17.585l2.462-6.625l2.408,6.625H395.783z M179.792,21.129h9.001v3.98h-13.515V5.807H188.3V9.76
	h-8.508v3.626h8.043v3.735h-8.043V21.129z M390.365,9.788h-7.496V25.11h-4.678V5.807h12.174V9.788z M250.958,5.807h4.678V25.11
	h-4.678v-8.07h-7.551v8.07h-4.678V5.807h4.678v7.307h7.551V5.807z M226.635,21.129h9v3.98h-13.515V5.807h13.022V9.76h-8.508v3.626
	h8.043v3.735h-8.043V21.129z M213.444,5.807h4.678V25.11h-26.236V5.807h4.679v15.322h6.101V5.807h4.678v15.322h6.101V5.807z
	 M271.807,5.807h4.924V25.11h-4.623V12.705h-0.083L264.64,25.11h-5.007V5.807h4.624v12.705h0.109L271.807,5.807z M295.477,5.807
	h15.622v3.98h-5.472V25.11h-4.678V9.788h-5.472V5.807z M285.243,21.129h9.001v3.98h-13.515V5.807h13.022V9.76h-8.508v3.626h8.043
	v3.735h-8.043V21.129z"/>
</svg>
